STARTFONT 2.1
COMMENT converted Oberon font (using FontToBDF by R.Crelier 10.1.91)
FONT Syntax16m.Scn.Fnt
SIZE 16 75 75
FONTBOUNDINGBOX  18 18 0 -4
STARTPROPERTIES 3
FONT_ASCENT 14
FONT_DESCENT 4
DEFAULT_CHAR 0
ENDPROPERTIES
CHARS 121
STARTCHAR c0
ENCODING -1 0
SWIDTH 0 0
DWIDTH 0 0
BBX 0 0 0 0
BITMAP
ENDCHAR
STARTCHAR c9
ENCODING -1 9
SWIDTH 516 0
DWIDTH 16 0
BBX 0 0 0 0
BITMAP
ENDCHAR
STARTCHAR c32
ENCODING -1 32
SWIDTH 129 0
DWIDTH 4 0
BBX 0 0 0 0
BITMAP
ENDCHAR
STARTCHAR c33
ENCODING -1 33
SWIDTH 193 0
DWIDTH 6 0
BBX 2 12 2 0
BITMAP
C0
C0
C0
C0
C0
C0
C0
80
00
00
C0
C0
ENDCHAR
STARTCHAR c34
ENCODING -1 34
SWIDTH 258 0
DWIDTH 8 0
BBX 5 4 2 7
BITMAP
D8
D8
90
90
ENDCHAR
STARTCHAR c35
ENCODING -1 35
SWIDTH 354 0
DWIDTH 11 0
BBX 9 11 1 0
BITMAP
2200
2200
2200
FF80
2200
2200
2200
FF80
2200
2200
2200
ENDCHAR
STARTCHAR c36
ENCODING -1 36
SWIDTH 322 0
DWIDTH 10 0
BBX 8 14 1 -1
BITMAP
08
3F
7F
C8
C8
C8
FE
7F
13
13
13
FE
FC
10
ENDCHAR
STARTCHAR c37
ENCODING -1 37
SWIDTH 483 0
DWIDTH 15 0
BBX 13 12 1 0
BITMAP
0040
70C0
D880
8980
8900
DA00
7270
04D8
0C88
0888
18D8
1070
ENDCHAR
STARTCHAR c38
ENCODING -1 38
SWIDTH 354 0
DWIDTH 11 0
BBX 10 12 1 0
BITMAP
1C00
3200
3200
3600
1C00
3880
6C80
CE80
C680
C300
C780
79C0
ENDCHAR
STARTCHAR c39
ENCODING -1 39
SWIDTH 161 0
DWIDTH 5 0
BBX 2 4 2 7
BITMAP
C0
C0
80
80
ENDCHAR
STARTCHAR c40
ENCODING -1 40
SWIDTH 225 0
DWIDTH 7 0
BBX 5 17 1 -4
BITMAP
08
10
20
60
40
40
C0
80
80
80
C0
40
40
60
20
10
08
ENDCHAR
STARTCHAR c41
ENCODING -1 41
SWIDTH 225 0
DWIDTH 7 0
BBX 5 17 2 -4
BITMAP
80
40
20
30
10
10
18
08
08
08
18
10
10
30
20
40
80
ENDCHAR
STARTCHAR c42
ENCODING -1 42
SWIDTH 322 0
DWIDTH 10 0
BBX 9 9 1 0
BITMAP
6300
2200
1400
0800
FF80
0800
1400
2200
6300
ENDCHAR
STARTCHAR c43
ENCODING -1 43
SWIDTH 322 0
DWIDTH 10 0
BBX 9 9 1 0
BITMAP
0800
0800
0800
0800
FF80
0800
0800
0800
0800
ENDCHAR
STARTCHAR c44
ENCODING -1 44
SWIDTH 161 0
DWIDTH 5 0
BBX 2 5 2 -3
BITMAP
C0
C0
80
80
80
ENDCHAR
STARTCHAR c45
ENCODING -1 45
SWIDTH 322 0
DWIDTH 10 0
BBX 9 1 1 4
BITMAP
FF80
ENDCHAR
STARTCHAR c46
ENCODING -1 46
SWIDTH 161 0
DWIDTH 5 0
BBX 2 2 2 0
BITMAP
C0
C0
ENDCHAR
STARTCHAR c47
ENCODING -1 47
SWIDTH 322 0
DWIDTH 10 0
BBX 8 13 1 -1
BITMAP
01
03
02
04
04
08
18
10
20
20
40
C0
80
ENDCHAR
STARTCHAR c48
ENCODING -1 48
SWIDTH 322 0
DWIDTH 10 0
BBX 9 12 1 0
BITMAP
1C00
7F00
6300
C180
C180
C180
C180
C180
C180
6300
7F00
1C00
ENDCHAR
STARTCHAR c49
ENCODING -1 49
SWIDTH 322 0
DWIDTH 10 0
BBX 6 12 1 0
BITMAP
0C
1C
3C
6C
CC
0C
0C
0C
0C
0C
0C
0C
ENDCHAR
STARTCHAR c50
ENCODING -1 50
SWIDTH 322 0
DWIDTH 10 0
BBX 8 12 1 0
BITMAP
7C
7E
07
03
03
06
0E
1C
30
60
FF
FF
ENDCHAR
STARTCHAR c51
ENCODING -1 51
SWIDTH 322 0
DWIDTH 10 0
BBX 7 12 2 0
BITMAP
FC
FE
06
06
06
F8
F8
06
06
06
FE
FC
ENDCHAR
STARTCHAR c52
ENCODING -1 52
SWIDTH 322 0
DWIDTH 10 0
BBX 9 12 1 0
BITMAP
0600
0E00
1E00
3600
3600
6600
C600
FF80
FF80
0600
0600
0600
ENDCHAR
STARTCHAR c53
ENCODING -1 53
SWIDTH 322 0
DWIDTH 10 0
BBX 7 12 2 0
BITMAP
3E
3E
60
60
60
FC
FE
06
06
06
FC
F8
ENDCHAR
STARTCHAR c54
ENCODING -1 54
SWIDTH 322 0
DWIDTH 10 0
BBX 8 12 1 0
BITMAP
0F
1F
30
60
60
DE
E7
C3
C3
C3
7E
3C
ENDCHAR
STARTCHAR c55
ENCODING -1 55
SWIDTH 322 0
DWIDTH 10 0
BBX 8 12 1 0
BITMAP
FF
FF
03
06
06
0C
0C
18
30
30
60
60
ENDCHAR
STARTCHAR c56
ENCODING -1 56
SWIDTH 322 0
DWIDTH 10 0
BBX 8 12 1 0
BITMAP
3E
7F
C3
C3
E6
7C
3E
67
C3
C3
FE
7C
ENDCHAR
STARTCHAR c57
ENCODING -1 57
SWIDTH 322 0
DWIDTH 10 0
BBX 8 12 1 0
BITMAP
3C
7E
C3
C3
C3
E7
7B
06
06
0C
F8
F0
ENDCHAR
STARTCHAR c58
ENCODING -1 58
SWIDTH 193 0
DWIDTH 6 0
BBX 2 8 3 0
BITMAP
C0
C0
00
00
00
00
C0
C0
ENDCHAR
STARTCHAR c59
ENCODING -1 59
SWIDTH 193 0
DWIDTH 6 0
BBX 2 10 3 -2
BITMAP
C0
C0
00
00
00
00
C0
C0
80
80
ENDCHAR
STARTCHAR c60
ENCODING -1 60
SWIDTH 322 0
DWIDTH 10 0
BBX 9 8 1 0
BITMAP
0380
0E00
3800
C000
E000
3800
0E00
0380
ENDCHAR
STARTCHAR c61
ENCODING -1 61
SWIDTH 322 0
DWIDTH 10 0
BBX 8 4 1 2
BITMAP
FF
00
00
FF
ENDCHAR
STARTCHAR c62
ENCODING -1 62
SWIDTH 322 0
DWIDTH 10 0
BBX 9 8 1 0
BITMAP
E000
3800
0E00
0380
0180
0E00
3800
E000
ENDCHAR
STARTCHAR c63
ENCODING -1 63
SWIDTH 258 0
DWIDTH 8 0
BBX 6 12 2 0
BITMAP
F0
F8
0C
0C
0C
18
30
60
60
00
60
60
ENDCHAR
STARTCHAR c64
ENCODING -1 64
SWIDTH 483 0
DWIDTH 15 0
BBX 12 13 2 -1
BITMAP
0F80
3060
4020
4790
8D90
9990
9990
9990
9B90
9DA0
81C0
4000
3C00
ENDCHAR
STARTCHAR c65
ENCODING -1 65
SWIDTH 322 0
DWIDTH 10 0
BBX 9 12 1 0
BITMAP
1C00
1C00
1C00
3600
3600
2200
6300
7F00
7F00
C180
C180
C180
ENDCHAR
STARTCHAR c66
ENCODING -1 66
SWIDTH 354 0
DWIDTH 11 0
BBX 8 12 2 0
BITMAP
FE
C7
C3
C3
C6
FC
C6
C3
C3
C3
C7
FE
ENDCHAR
STARTCHAR c67
ENCODING -1 67
SWIDTH 290 0
DWIDTH 9 0
BBX 8 12 1 0
BITMAP
0F
3F
70
60
C0
C0
C0
C0
C0
60
7F
1E
ENDCHAR
STARTCHAR c68
ENCODING -1 68
SWIDTH 419 0
DWIDTH 13 0
BBX 10 12 2 0
BITMAP
FE00
FF80
C180
C0C0
C0C0
C0C0
C0C0
C0C0
C0C0
C180
FF80
FE00
ENDCHAR
STARTCHAR c69
ENCODING -1 69
SWIDTH 290 0
DWIDTH 9 0
BBX 7 12 2 0
BITMAP
FE
FE
C0
C0
C0
FE
FE
C0
C0
C0
FE
FE
ENDCHAR
STARTCHAR c70
ENCODING -1 70
SWIDTH 290 0
DWIDTH 9 0
BBX 7 12 2 0
BITMAP
FE
FE
C0
C0
C0
FE
FE
C0
C0
C0
C0
C0
ENDCHAR
STARTCHAR c71
ENCODING -1 71
SWIDTH 322 0
DWIDTH 10 0
BBX 9 12 1 0
BITMAP
0F00
3F00
7000
6000
C000
C000
C180
C180
C180
6180
7F80
1E00
ENDCHAR
STARTCHAR c72
ENCODING -1 72
SWIDTH 387 0
DWIDTH 12 0
BBX 9 12 2 0
BITMAP
C180
C180
C180
C180
C180
FF80
FF80
C180
C180
C180
C180
C180
ENDCHAR
STARTCHAR c73
ENCODING -1 73
SWIDTH 161 0
DWIDTH 5 0
BBX 2 12 2 0
BITMAP
C0
C0
C0
C0
C0
C0
C0
C0
C0
C0
C0
C0
ENDCHAR
STARTCHAR c74
ENCODING -1 74
SWIDTH 193 0
DWIDTH 6 0
BBX 5 12 0 0
BITMAP
18
18
18
18
18
18
18
18
18
18
F0
E0
ENDCHAR
STARTCHAR c75
ENCODING -1 75
SWIDTH 354 0
DWIDTH 11 0
BBX 9 12 2 0
BITMAP
C180
C180
C300
C600
CC00
D800
F800
DC00
CE00
C700
C380
C180
ENDCHAR
STARTCHAR c76
ENCODING -1 76
SWIDTH 258 0
DWIDTH 8 0
BBX 6 12 2 0
BITMAP
C0
C0
C0
C0
C0
C0
C0
C0
C0
C0
FC
FC
ENDCHAR
STARTCHAR c77
ENCODING -1 77
SWIDTH 516 0
DWIDTH 16 0
BBX 15 12 1 0
BITMAP
3838
3838
3838
2C28
2C6C
6C6C
664C
66CC
46C6
C386
C386
C386
ENDCHAR
STARTCHAR c78
ENCODING -1 78
SWIDTH 419 0
DWIDTH 13 0
BBX 10 12 2 0
BITMAP
E0C0
F0C0
F0C0
D8C0
D8C0
CCC0
CCC0
C6C0
C6C0
C3C0
C3C0
C1C0
ENDCHAR
STARTCHAR c79
ENCODING -1 79
SWIDTH 419 0
DWIDTH 13 0
BBX 10 12 2 0
BITMAP
1E00
7F80
6180
C0C0
C0C0
C0C0
C0C0
C0C0
C0C0
6180
7F80
1E00
ENDCHAR
STARTCHAR c80
ENCODING -1 80
SWIDTH 290 0
DWIDTH 9 0
BBX 7 12 2 0
BITMAP
FC
C6
C6
C6
C6
FC
C0
C0
C0
C0
C0
C0
ENDCHAR
STARTCHAR c81
ENCODING -1 81
SWIDTH 419 0
DWIDTH 13 0
BBX 10 15 2 -3
BITMAP
1E00
7F80
6180
C0C0
C0C0
C0C0
C0C0
C0C0
C0C0
6180
7F80
1E00
0700
03C0
00C0
ENDCHAR
STARTCHAR c82
ENCODING -1 82
SWIDTH 322 0
DWIDTH 10 0
BBX 8 12 2 0
BITMAP
FC
C6
C6
C6
C6
FC
D8
CC
CC
C6
C3
C3
ENDCHAR
STARTCHAR c83
ENCODING -1 83
SWIDTH 258 0
DWIDTH 8 0
BBX 7 12 1 0
BITMAP
3E
FE
C0
C0
E0
78
3C
0E
06
06
FE
F8
ENDCHAR
STARTCHAR c84
ENCODING -1 84
SWIDTH 290 0
DWIDTH 9 0
BBX 8 12 1 0
BITMAP
FF
FF
18
18
18
18
18
18
18
18
18
18
ENDCHAR
STARTCHAR c85
ENCODING -1 85
SWIDTH 387 0
DWIDTH 12 0
BBX 9 12 2 0
BITMAP
C180
C180
C180
C180
C180
C180
C180
C180
C180
E380
7F00
3E00
ENDCHAR
STARTCHAR c86
ENCODING -1 86
SWIDTH 322 0
DWIDTH 10 0
BBX 9 12 1 0
BITMAP
C180
C180
C180
6300
6300
6300
3200
3600
3600
1C00
1C00
1C00
ENDCHAR
STARTCHAR c87
ENCODING -1 87
SWIDTH 580 0
DWIDTH 18 0
BBX 17 12 1 0
BITMAP
C1C180
C1C180
C1C180
636300
636300
636300
323200
363600
363600
1C1C00
1C1C00
1C1C00
ENDCHAR
STARTCHAR c88
ENCODING -1 88
SWIDTH 354 0
DWIDTH 11 0
BBX 10 12 1 0
BITMAP
60C0
60C0
3180
1900
1B00
0C00
0C00
3600
2600
6300
C180
C180
ENDCHAR
STARTCHAR c89
ENCODING -1 89
SWIDTH 322 0
DWIDTH 10 0
BBX 9 12 1 0
BITMAP
C180
C180
6300
6200
3600
3400
1800
1800
1800
1800
1800
1800
ENDCHAR
STARTCHAR c90
ENCODING -1 90
SWIDTH 290 0
DWIDTH 9 0
BBX 8 12 1 0
BITMAP
FF
FF
07
06
0C
1C
38
30
60
E0
FF
FF
ENDCHAR
STARTCHAR c91
ENCODING -1 91
SWIDTH 225 0
DWIDTH 7 0
BBX 4 16 2 -3
BITMAP
F0
80
80
80
80
80
80
80
80
80
80
80
80
80
80
F0
ENDCHAR
STARTCHAR c92
ENCODING -1 92
SWIDTH 322 0
DWIDTH 10 0
BBX 8 13 1 -1
BITMAP
80
C0
40
20
20
10
18
08
04
04
02
03
01
ENDCHAR
STARTCHAR c93
ENCODING -1 93
SWIDTH 225 0
DWIDTH 7 0
BBX 4 16 2 -3
BITMAP
F0
10
10
10
10
10
10
10
10
10
10
10
10
10
10
F0
ENDCHAR
STARTCHAR c94
ENCODING -1 94
SWIDTH 322 0
DWIDTH 10 0
BBX 9 10 1 0
BITMAP
0800
1C00
2A00
4900
C980
0800
0800
0800
0800
0800
ENDCHAR
STARTCHAR c95
ENCODING -1 95
SWIDTH 193 0
DWIDTH 6 0
BBX 5 1 1 -1
BITMAP
F8
ENDCHAR
STARTCHAR c96
ENCODING -1 96
SWIDTH 258 0
DWIDTH 8 0
BBX 3 4 2 10
BITMAP
80
C0
40
20
ENDCHAR
STARTCHAR c97
ENCODING -1 97
SWIDTH 258 0
DWIDTH 8 0
BBX 7 9 1 0
BITMAP
78
CC
8C
0C
7C
CC
CC
DC
EE
ENDCHAR
STARTCHAR c98
ENCODING -1 98
SWIDTH 322 0
DWIDTH 10 0
BBX 7 13 2 0
BITMAP
C0
C0
C0
C0
CE
DE
E6
C6
C6
C6
C6
CC
F8
ENDCHAR
STARTCHAR c99
ENCODING -1 99
SWIDTH 258 0
DWIDTH 8 0
BBX 7 9 1 0
BITMAP
3E
66
C0
C0
C0
C0
C0
66
7C
ENDCHAR
STARTCHAR c100
ENCODING -1 100
SWIDTH 322 0
DWIDTH 10 0
BBX 7 13 2 0
BITMAP
06
06
06
06
3E
66
C6
C6
C6
C6
CE
F6
E6
ENDCHAR
STARTCHAR c101
ENCODING -1 101
SWIDTH 258 0
DWIDTH 8 0
BBX 7 9 1 0
BITMAP
3C
66
C6
FE
C0
C0
C0
66
7C
ENDCHAR
STARTCHAR c102
ENCODING -1 102
SWIDTH 193 0
DWIDTH 6 0
BBX 5 13 1 0
BITMAP
18
38
60
60
F8
60
60
60
60
60
60
60
60
ENDCHAR
STARTCHAR c103
ENCODING -1 103
SWIDTH 290 0
DWIDTH 9 0
BBX 8 13 1 -4
BITMAP
3F
66
66
66
7C
20
60
7E
3F
43
C3
C6
7C
ENDCHAR
STARTCHAR c104
ENCODING -1 104
SWIDTH 322 0
DWIDTH 10 0
BBX 7 13 2 0
BITMAP
C0
C0
C0
C0
CE
DE
E6
C6
C6
C6
C6
C6
C6
ENDCHAR
STARTCHAR c105
ENCODING -1 105
SWIDTH 161 0
DWIDTH 5 0
BBX 2 13 2 0
BITMAP
C0
C0
00
00
C0
C0
C0
C0
C0
C0
C0
C0
C0
ENDCHAR
STARTCHAR c106
ENCODING -1 106
SWIDTH 161 0
DWIDTH 5 0
BBX 4 17 0 -4
BITMAP
30
30
00
00
30
30
30
30
30
30
30
30
30
30
30
E0
C0
ENDCHAR
STARTCHAR c107
ENCODING -1 107
SWIDTH 290 0
DWIDTH 9 0
BBX 7 13 2 0
BITMAP
C0
C0
C0
C0
C2
C6
CC
D8
F0
D8
DC
CE
C6
ENDCHAR
STARTCHAR c108
ENCODING -1 108
SWIDTH 161 0
DWIDTH 5 0
BBX 2 13 2 0
BITMAP
C0
C0
C0
C0
C0
C0
C0
C0
C0
C0
C0
C0
C0
ENDCHAR
STARTCHAR c109
ENCODING -1 109
SWIDTH 483 0
DWIDTH 15 0
BBX 12 9 2 0
BITMAP
CE70
DEF0
E730
C630
C630
C630
C630
C630
C630
ENDCHAR
STARTCHAR c110
ENCODING -1 110
SWIDTH 322 0
DWIDTH 10 0
BBX 7 9 2 0
BITMAP
CE
DE
E6
C6
C6
C6
C6
C6
C6
ENDCHAR
STARTCHAR c111
ENCODING -1 111
SWIDTH 290 0
DWIDTH 9 0
BBX 8 9 1 0
BITMAP
3E
66
C3
C3
C3
C3
C3
66
7C
ENDCHAR
STARTCHAR c112
ENCODING -1 112
SWIDTH 322 0
DWIDTH 10 0
BBX 7 13 2 -4
BITMAP
CE
DE
E6
C6
C6
C6
C6
CC
F8
C0
C0
C0
C0
ENDCHAR
STARTCHAR c113
ENCODING -1 113
SWIDTH 322 0
DWIDTH 10 0
BBX 7 13 2 -4
BITMAP
3E
66
C6
C6
C6
C6
CE
F6
E6
06
06
06
06
ENDCHAR
STARTCHAR c114
ENCODING -1 114
SWIDTH 225 0
DWIDTH 7 0
BBX 5 9 2 0
BITMAP
D8
D8
E0
C0
C0
C0
C0
C0
C0
ENDCHAR
STARTCHAR c115
ENCODING -1 115
SWIDTH 225 0
DWIDTH 7 0
BBX 6 9 1 0
BITMAP
7C
C0
C0
F0
78
3C
0C
0C
F8
ENDCHAR
STARTCHAR c116
ENCODING -1 116
SWIDTH 225 0
DWIDTH 7 0
BBX 6 11 1 0
BITMAP
60
60
FC
60
60
60
60
60
60
6C
38
ENDCHAR
STARTCHAR c117
ENCODING -1 117
SWIDTH 322 0
DWIDTH 10 0
BBX 7 9 2 0
BITMAP
C6
C6
C6
C6
C6
C6
CE
F6
E6
ENDCHAR
STARTCHAR c118
ENCODING -1 118
SWIDTH 258 0
DWIDTH 8 0
BBX 7 9 1 0
BITMAP
C6
C6
C4
6C
6C
68
78
30
30
ENDCHAR
STARTCHAR c119
ENCODING -1 119
SWIDTH 451 0
DWIDTH 14 0
BBX 13 9 1 0
BITMAP
C718
C718
C710
6DB0
6DB0
69A0
79E0
30C0
30C0
ENDCHAR
STARTCHAR c120
ENCODING -1 120
SWIDTH 290 0
DWIDTH 9 0
BBX 8 9 1 0
BITMAP
63
62
36
34
18
2C
6C
46
C6
ENDCHAR
STARTCHAR c121
ENCODING -1 121
SWIDTH 258 0
DWIDTH 8 0
BBX 8 13 0 -4
BITMAP
63
63
62
36
36
34
3C
18
18
10
30
20
E0
ENDCHAR
STARTCHAR c122
ENCODING -1 122
SWIDTH 225 0
DWIDTH 7 0
BBX 6 9 1 0
BITMAP
FC
0C
18
18
30
60
60
C0
FC
ENDCHAR
STARTCHAR c123
ENCODING -1 123
SWIDTH 225 0
DWIDTH 7 0
BBX 5 17 1 -4
BITMAP
18
20
20
20
20
20
20
20
C0
20
20
20
20
20
20
20
18
ENDCHAR
STARTCHAR c124
ENCODING -1 124
SWIDTH 225 0
DWIDTH 7 0
BBX 1 17 3 -4
BITMAP
80
80
80
80
80
80
80
80
80
80
80
80
80
80
80
80
80
ENDCHAR
STARTCHAR c125
ENCODING -1 125
SWIDTH 225 0
DWIDTH 7 0
BBX 5 17 2 -4
BITMAP
C0
20
20
20
20
20
20
20
18
20
20
20
20
20
20
20
C0
ENDCHAR
STARTCHAR c126
ENCODING -1 126
SWIDTH 354 0
DWIDTH 11 0
BBX 10 5 1 2
BITMAP
7840
C840
8C40
84C0
8780
ENDCHAR
STARTCHAR c128
ENCODING -1 128
SWIDTH 322 0
DWIDTH 10 0
BBX 9 14 1 0
BITMAP
6300
6300
1C00
1C00
1C00
3600
3600
2200
6300
7F00
7F00
C180
C180
C180
ENDCHAR
STARTCHAR c129
ENCODING -1 129
SWIDTH 419 0
DWIDTH 13 0
BBX 10 14 2 0
BITMAP
6180
6180
1E00
7F80
6180
C0C0
C0C0
C0C0
C0C0
C0C0
C0C0
6180
7F80
1E00
ENDCHAR
STARTCHAR c130
ENCODING -1 130
SWIDTH 387 0
DWIDTH 12 0
BBX 9 14 2 0
BITMAP
3600
3600
C180
C180
C180
C180
C180
C180
C180
C180
C180
E380
7F00
3E00
ENDCHAR
STARTCHAR c131
ENCODING -1 131
SWIDTH 258 0
DWIDTH 8 0
BBX 7 13 1 0
BITMAP
CC
CC
00
00
78
CC
8C
0C
7C
CC
CC
DC
EE
ENDCHAR
STARTCHAR c132
ENCODING -1 132
SWIDTH 290 0
DWIDTH 9 0
BBX 8 13 1 0
BITMAP
66
66
00
00
3E
66
C3
C3
C3
C3
C3
66
7C
ENDCHAR
STARTCHAR c133
ENCODING -1 133
SWIDTH 322 0
DWIDTH 10 0
BBX 7 13 2 0
BITMAP
6C
6C
00
00
C6
C6
C6
C6
C6
C6
CE
F6
E6
ENDCHAR
STARTCHAR c134
ENCODING -1 134
SWIDTH 258 0
DWIDTH 8 0
BBX 7 14 1 0
BITMAP
30
78
CC
84
00
78
CC
8C
0C
7C
CC
CC
DC
EE
ENDCHAR
STARTCHAR c135
ENCODING -1 135
SWIDTH 258 0
DWIDTH 8 0
BBX 7 14 1 0
BITMAP
18
3C
66
42
00
3C
66
C6
FE
C0
C0
C0
66
7C
ENDCHAR
STARTCHAR c136
ENCODING -1 136
SWIDTH 161 0
DWIDTH 5 0
BBX 4 14 1 0
BITMAP
60
60
90
90
00
60
60
60
60
60
60
60
60
60
ENDCHAR
STARTCHAR c137
ENCODING -1 137
SWIDTH 290 0
DWIDTH 9 0
BBX 8 14 1 0
BITMAP
18
3C
66
42
00
3E
66
C3
C3
C3
C3
C3
66
7C
ENDCHAR
STARTCHAR c138
ENCODING -1 138
SWIDTH 322 0
DWIDTH 10 0
BBX 7 14 2 0
BITMAP
10
38
6C
44
00
C6
C6
C6
C6
C6
C6
CE
F6
E6
ENDCHAR
STARTCHAR c139
ENCODING -1 139
SWIDTH 258 0
DWIDTH 8 0
BBX 7 14 1 0
BITMAP
40
60
20
10
00
78
CC
8C
0C
7C
CC
CC
DC
EE
ENDCHAR
STARTCHAR c140
ENCODING -1 140
SWIDTH 258 0
DWIDTH 8 0
BBX 7 14 1 0
BITMAP
20
30
10
08
00
3C
66
C6
FE
C0
C0
C0
66
7C
ENDCHAR
STARTCHAR c141
ENCODING -1 141
SWIDTH 161 0
DWIDTH 5 0
BBX 3 14 1 0
BITMAP
80
C0
40
20
00
60
60
60
60
60
60
60
60
60
ENDCHAR
STARTCHAR c142
ENCODING -1 142
SWIDTH 290 0
DWIDTH 9 0
BBX 8 14 1 0
BITMAP
20
30
10
08
00
3E
66
C3
C3
C3
C3
C3
66
7C
ENDCHAR
STARTCHAR c143
ENCODING -1 143
SWIDTH 322 0
DWIDTH 10 0
BBX 7 14 2 0
BITMAP
20
30
10
08
00
C6
C6
C6
C6
C6
C6
CE
F6
E6
ENDCHAR
STARTCHAR c144
ENCODING -1 144
SWIDTH 258 0
DWIDTH 8 0
BBX 7 14 1 0
BITMAP
04
0C
08
10
00
3C
66
C6
FE
C0
C0
C0
66
7C
ENDCHAR
STARTCHAR c145
ENCODING -1 145
SWIDTH 258 0
DWIDTH 8 0
BBX 7 13 1 0
BITMAP
66
66
00
00
3C
66
C6
FE
C0
C0
C0
66
7C
ENDCHAR
STARTCHAR c146
ENCODING -1 146
SWIDTH 161 0
DWIDTH 5 0
BBX 4 13 1 0
BITMAP
90
90
00
00
60
60
60
60
60
60
60
60
60
ENDCHAR
STARTCHAR c147
ENCODING -1 147
SWIDTH 258 0
DWIDTH 8 0
BBX 7 13 1 -4
BITMAP
3E
66
C0
C0
C0
C0
C0
66
7C
00
30
10
20
ENDCHAR
STARTCHAR c148
ENCODING -1 148
SWIDTH 258 0
DWIDTH 8 0
BBX 7 14 1 0
BITMAP
08
18
10
20
00
78
CC
8C
0C
7C
CC
CC
DC
EE
ENDCHAR
STARTCHAR c149
ENCODING -1 149
SWIDTH 322 0
DWIDTH 10 0
BBX 7 13 2 0
BITMAP
72
9C
00
00
CE
DE
E6
C6
C6
C6
C6
C6
C6
ENDCHAR
STARTCHAR c155
ENCODING -1 155
SWIDTH 322 0
DWIDTH 10 0
BBX 10 1 0 4
BITMAP
FFC0
ENDCHAR
STARTCHAR c159
ENCODING -1 159
SWIDTH 322 0
DWIDTH 10 0
BBX 0 0 0 0
BITMAP
ENDCHAR
ENDFONT
